0
SECTION
2
ENTITIES
0
POLYLINE
8
0
66
1
70
8
62
5
0
VERTEX
8
0
10
3
20
1.2
0
VERTEX
8
0
10
4
20
1.2
0
VERTEX
8
0
10
4
20
2.2
0
VERTEX
8
0
10
3
20
2.2
0
VERTEX
8
0
10
3
20
1.2
0
SEQEND
0
LINE
8
0
62
8
10
3
20
1.15
11
4
21
1.15
0
TEXT
8
0
10
3.5
20
1.08
40
0.05
1
50
0
LINE
8
0
62
8
10
4.05
20
1.2
11
4.05
21
2.2
0
TEXT
8
0
10
4.07
20
1.7
40
0.05
1
50
0
LINE
8
0
62
3
10
3.1
20
1.28
11
3.9
21
1.28
0
LINE
8
0
62
3
10
3.92
20
1.3
11
3.92
21
2.1
0
LINE
8
0
62
3
10
3.9
20
2.12
11
3.1
21
2.12
0
LINE
8
0
62
3
10
3.08
20
2.1
11
3.08
21
1.3
0
ARC
8
0
62
3
10
3.1
20
1.3
40
0.02
50
180
51
270
0
ARC
8
0
62
3
10
3.9
20
1.3
40
0.02
50
270
51
0
0
ARC
8
0
62
3
10
3.9
20
2.1
40
0.02
50
0
51
90
0
ARC
8
0
62
3
10
3.1
20
2.1
40
0.02
50
90
51
180
0
LINE
8
0
62
3
10
3.12
20
1.3
11
3.88
21
1.3
0
LINE
8
0
62
3
10
3.9
20
1.32
11
3.9
21
2.08
0
LINE
8
0
62
3
10
3.88
20
2.1
11
3.12
21
2.1
0
LINE
8
0
62
3
10
3.1
20
2.08
11
3.1
21
1.32
0
ARC
8
0
62
3
10
3.12
20
1.32
40
0.02
50
180
51
270
0
ARC
8
0
62
3
10
3.88
20
1.32
40
0.02
50
270
51
0
0
ARC
8
0
62
3
10
3.88
20
2.08
40
0.02
50
0
51
90
0
ARC
8
0
62
3
10
3.12
20
2.08
40
0.02
50
90
51
180
0
LINE
8
0
10
3.695735314
20
1.855735314
11
3.86
21
2.12
62
3
0
LINE
8
0
10
3.86
20
2.12
11
3.695735314
21
1.855735314
62
3
0
LINE
8
0
10
3.785735314
20
1.825735314
11
3.92
21
2.08
62
3
0
LINE
8
0
10
3.92
20
2.08
11
3.785735314
21
1.825735314
62
3
0
LINE
8
0
10
3.715735314
20
1.855735314
11
3.86
21
2.1
62
3
0
LINE
8
0
10
3.86
20
2.1
11
3.715735314
21
1.855735314
62
3
0
LINE
8
0
10
3.775735314
20
1.835735314
11
3.9
21
2.06
62
3
0
LINE
8
0
10
3.9
20
2.06
11
3.775735314
21
1.835735314
62
3
0
CIRCLE
8
0
10
3.3666666666667
20
1.3127
40
0.0127
0
LINE
8
0
62
1
10
3.3666666666667
20
1.3127
11
3.5
21
2.25
0
CIRCLE
8
0
10
3.6333333333333
20
1.3127
40
0.0127
0
LINE
8
0
62
1
10
3.6333333333333
20
1.3127
11
3.5
21
2.25
0
TEXT
8
0
62
1
10
3.55
20
2.25
40
0.05
1
4 1/4"
0
CIRCLE
8
0
10
3.3666666666667
20
2.0873
40
0.0127
0
LINE
8
0
62
1
10
3.3666666666667
20
2.0873
11
3.5
21
2.25
0
CIRCLE
8
0
10
3.6333333333333
20
2.0873
40
0.0127
0
LINE
8
0
62
1
10
3.6333333333333
20
2.0873
11
3.5
21
2.25
0
CIRCLE
8
0
10
3.1127
20
1.5666666666667
40
0.0127
0
LINE
8
0
62
2
10
3.1127
20
1.5666666666667
11
2.5
21
1.7
0
CIRCLE
8
0
10
3.1127
20
1.8333333333333
40
0.0127
0
LINE
8
0
62
2
10
3.1127
20
1.8333333333333
11
2.5
21
1.7
0
CIRCLE
8
0
10
3.8873
20
1.5666666666667
40
0.0127
0
LINE
8
0
62
2
10
3.8873
20
1.5666666666667
11
2.5
21
1.7
0
CIRCLE
8
0
10
3.8873
20
1.8333333333333
40
0.0127
0
LINE
8
0
62
2
10
3.8873
20
1.8333333333333
11
2.5
21
1.7
0
TEXT
8
0
62
2
10
2.25
20
1.7
40
0.05
1
4 1/4"
0
CIRCLE
8
0
10
3.1127
20
1.3127
40
0.0127
0
LINE
8
0
62
6
10
3.1127
20
1.3127
11
4.3
21
1.7
0
CIRCLE
8
0
10
3.8873
20
1.3127
40
0.0127
0
LINE
8
0
62
6
10
3.8873
20
1.3127
11
4.3
21
1.7
0
CIRCLE
8
0
10
3.8873
20
2.0873
40
0.0127
0
LINE
8
0
62
6
10
3.8873
20
2.0873
11
4.3
21
1.7
0
CIRCLE
8
0
10
3.1127
20
2.0873
40
0.0127
0
LINE
8
0
62
6
10
3.1127
20
2.0873
11
4.3
21
1.7
0
TEXT
8
0
62
6
10
4.3
20
1.7
40
0.05
1
4 "1/4"
0
TEXT
8
0
10
0.2
20
3.2
40
0.1
1
ESCALA:
0
TEXT
8
0
10
0.2
20
3
40
0.1
1
 1/50
0
TEXT
8
0
10
2
20
3.1
40
0.1
1
CUADRO DE COLUMNA
0
TEXT
8
0
10
0.2
20
2.7
40
0.1
1
NIVEL
0
TEXT
8
0
10
1.15
20
2.7
40
0.1
1
CONCRETO
0
TEXT
8
0
10
1
20
2.5
40
0.1
1
fc'(Kg/cm2)
0
TEXT
8
0
10
3.2
20
2.7
40
0.1
1
C1
0
TEXT
8
0
10
0.2
20
2.1
40
0.1
1
1° PISO
0
TEXT
8
0
10
0.2
20
1.9
40
0.1
1
2° PISO
0
TEXT
8
0
10
0.2
20
1.7
40
0.1
1
3° PISO
0
TEXT
8
0
10
0.2
20
1.5
40
0.1
1
4° PISO
0
TEXT
8
0
10
1.3
20
1.7
40
0.1
1
210
0
TEXT
8
0
10
0.5
20
0.5
40
0.1
1
ESFUERZO Y
0
TEXT
8
0
10
0.5
20
0.3
40
0.1
1
ESTRIBAJE
0
TEXT
8
0
10
2.7
20
0.8
40
0.1
1
50 cm X 50 cm
0
TEXT
8
0
10
2.2
20
0.6
40
0.1
1
4 1/4 + 4 1/4 + 4 1/4
0
TEXT
8
0
10
2.3
20
0.4
40
0.1
1
1 3/8∅: 1@0.05, 10@0.10,
0
TEXT
8
0
10
2.7
20
0.2
40
0.1
1
Rst. @0.20 C/E
0
POLYLINE
8
0
66
1
70
8
62
1
0
VERTEX
8
0
10
0
20
0
0
VERTEX
8
0
10
5
20
0
0
VERTEX
8
0
10
5
20
3.5
0
VERTEX
8
0
10
0
20
3.5
0
VERTEX
8
0
10
0
20
0
0
SEQEND
0
POLYLINE
8
0
66
1
70
8
62
1
0
VERTEX
8
0
10
0
20
0
0
VERTEX
8
0
10
5
20
0
0
VERTEX
8
0
10
5
20
-1
0
VERTEX
8
0
10
0
20
-1
0
VERTEX
8
0
10
0
20
0
0
SEQEND
0
LINE
8
0
62
1
10
2
20
0
11
2
21
-1
0
POLYLINE
8
0
66
1
70
8
62
1
0
VERTEX
8
0
10
0
20
0
0
VERTEX
8
0
10
5
20
0
0
VERTEX
8
0
10
5
20
3.5
0
VERTEX
8
0
10
0
20
3.5
0
VERTEX
8
0
10
0
20
0
0
SEQEND
62
1
0
LINE
8
0
10
1
20
1
11
1
21
3.5
62
1
0
LINE
8
0
10
1
20
3.5
11
1
21
1
62
1
0
LINE
8
0
10
2
20
0
11
2
21
2.9
62
1
0
LINE
8
0
10
2
20
2.9
11
2
21
0
62
1
0
LINE
8
0
10
0
20
2.9
11
5
21
2.9
62
1
0
LINE
8
0
10
5
20
2.9
11
0
21
2.9
62
1
0
LINE
8
0
10
0
20
2.4
11
5
21
2.4
0
LINE
8
0
10
5
20
2.4
11
0
21
2.4
62
1
0
LINE
8
0
10
0
20
1
11
5
21
1
0
LINE
8
0
10
5
20
1
11
0
21
1
62
1
0
ENDSEC
0
EOF