0
SECTION
2
ENTITIES
0
POLYLINE
8
0
66
1
70
8
62
5
0
VERTEX
8
0
10
3
20
1.2
0
VERTEX
8
0
10
3.8
20
1.2
0
VERTEX
8
0
10
3.8
20
3
0
VERTEX
8
0
10
3
20
3
0
VERTEX
8
0
10
3
20
1.2
0
SEQEND
0
LINE
8
0
62
8
10
3
20
1.15
11
3.8
21
1.15
0
TEXT
8
0
10
3.4
20
1.08
40
0.05
1
40
0
LINE
8
0
62
8
10
3.85
20
1.2
11
3.85
21
3
0
TEXT
8
0
10
3.87
20
2.1
40
0.05
1
90
0
POLYLINE
8
0
66
1
70
8
62
3
0
VERTEX
8
0
10
3.08
20
1.28
0
VERTEX
8
0
10
3.72
20
1.28
0
VERTEX
8
0
10
3.72
20
2.92
0
VERTEX
8
0
10
3.08
20
2.92
0
VERTEX
8
0
10
3.08
20
1.28
0
SEQEND
0
POLYLINE
8
0
66
1
70
8
62
3
0
VERTEX
8
0
10
3.1
20
1.3
0
VERTEX
8
0
10
3.7
20
1.3
0
VERTEX
8
0
10
3.7
20
2.9
0
VERTEX
8
0
10
3.1
20
2.9
0
VERTEX
8
0
10
3.1
20
1.3
0
SEQEND
0
LINE
8
0
10
3.495735314
20
2.655735314
11
3.66
21
2.92
62
3
0
LINE
8
0
10
3.66
20
2.92
11
3.495735314
21
2.655735314
62
3
0
LINE
8
0
10
3.585735314
20
2.625735314
11
3.72
21
2.88
62
3
0
LINE
8
0
10
3.72
20
2.88
11
3.585735314
21
2.625735314
62
3
0
LINE
8
0
10
3.515735314
20
2.655735314
11
3.66
21
2.9
62
3
0
LINE
8
0
10
3.66
20
2.9
11
3.515735314
21
2.655735314
62
3
0
LINE
8
0
10
3.575735314
20
2.635735314
11
3.7
21
2.86
62
3
0
LINE
8
0
10
3.7
20
2.86
11
3.575735314
21
2.635735314
62
3
0
CIRCLE
8
0
10
3.3
20
1.3127
40
0.0127
0
TEXT
8
0
10
3.27
20
1.2327
40
0.03
1
(2)
0
CIRCLE
8
0
10
3.5
20
1.3127
40
0.0127
0
TEXT
8
0
10
3.47
20
1.2327
40
0.03
1
(2)
0
CIRCLE
8
0
10
3.1127
20
1.8333333333333
40
0.0127
0
TEXT
8
0
10
3.0127
20
1.8233333333333
40
0.03
1
(2)
0
CIRCLE
8
0
10
3.1127
20
2.3666666666667
40
0.0127
0
TEXT
8
0
10
3.0127
20
2.3566666666667
40
0.03
1
(2)
0
CIRCLE
8
0
10
3.3
20
2.8873
40
0.0127
0
TEXT
8
0
10
3.27
20
2.9373
40
0.03
1
(2)
0
CIRCLE
8
0
10
3.5
20
2.8873
40
0.0127
0
TEXT
8
0
10
3.47
20
2.9373
40
0.03
1
(2)
0
CIRCLE
8
0
10
3.6873
20
1.8333333333333
40
0.0127
0
TEXT
8
0
10
3.7273
20
1.8133333333333
40
0.03
1
(2)
0
CIRCLE
8
0
10
3.6873
20
2.3666666666667
40
0.0127
0
TEXT
8
0
10
3.7273
20
2.3466666666667
40
0.03
1
(2)
0
CIRCLE
8
0
10
3.1127
20
1.3127
40
0.0127
0
TEXT
8
0
10
3.0827
20
1.2573
40
0.03
1
(2)
0
CIRCLE
8
0
10
3.6873
20
1.3127
40
0.0127
0
TEXT
8
0
10
3.6573
20
1.2573
40
0.03
1
(2)
0
CIRCLE
8
0
10
3.6873
20
2.8873
40
0.0127
0
TEXT
8
0
10
3.6573
20
2.9227
40
0.03
1
(2)
0
CIRCLE
8
0
10
3.1127
20
2.8873
40
0.0127
0
TEXT
8
0
10
3.0827
20
2.9227
40
0.03
1
(2)
0
TEXT
8
0
10
0.2
20
4
40
0.1
1
ESCALA:
0
TEXT
8
0
10
0.2
20
3.8
40
0.1
1
 1/50
0
TEXT
8
0
10
2
20
3.9
40
0.1
1
CUADRO DE COLUMNA
0
TEXT
8
0
10
0.2
20
3.5
40
0.1
1
NIVEL
0
TEXT
8
0
10
1.15
20
3.5
40
0.1
1
CONCRETO
0
TEXT
8
0
10
1
20
3.3
40
0.1
1
fc'(Kg/cm2)
0
TEXT
8
0
10
3.2
20
3.5
40
0.1
1
C1
0
TEXT
8
0
10
0.2
20
2.9
40
0.1
1
1° PISO
0
TEXT
8
0
10
0.2
20
2.7
40
0.1
1
2° PISO
0
TEXT
8
0
10
0.2
20
2.5
40
0.1
1
3° PISO
0
TEXT
8
0
10
0.2
20
2.3
40
0.1
1
4° PISO
0
TEXT
8
0
10
1.3
20
2.5
40
0.1
1
210
0
TEXT
8
0
10
0.5
20
0.5
40
0.1
1
ESFUERZO Y
0
TEXT
8
0
10
0.5
20
0.3
40
0.1
1
ESTRIBAJE
0
TEXT
8
0
10
2.7
20
0.8
40
0.1
1
40 cm X 90 cm
0
TEXT
8
0
10
2.2
20
0.6
40
0.1
1
40 1/4 + 4 01/4 + 4 00.000254
0
TEXT
8
0
10
2.3
20
0.4
40
0.1
1
1 3/8∅: 1@0.05, 10@0.10,
0
TEXT
8
0
10
2.7
20
0.2
40
0.1
1
Rst. @0.20 C/E
0
POLYLINE
8
0
66
1
70
8
62
1
0
VERTEX
8
0
10
0
20
0
0
VERTEX
8
0
10
4.8
20
0
0
VERTEX
8
0
10
4.8
20
4.3
0
VERTEX
8
0
10
0
20
4.3
0
VERTEX
8
0
10
0
20
0
0
SEQEND
62
1
0
LINE
8
0
10
1
20
1
11
1
21
4.3
62
1
0
LINE
8
0
10
1
20
4.3
11
1
21
1
62
1
0
LINE
8
0
10
2
20
0
11
2
21
3.7
62
1
0
LINE
8
0
10
2
20
3.7
11
2
21
0
62
1
0
LINE
8
0
10
0
20
3.7
11
4.8
21
3.7
62
1
0
LINE
8
0
10
4.8
20
3.7
11
0
21
3.7
62
1
0
LINE
8
0
10
0
20
3.2
11
4.8
21
3.2
0
LINE
8
0
10
4.8
20
3.2
11
0
21
3.2
62
1
0
LINE
8
0
10
0
20
1
11
4.8
21
1
0
LINE
8
0
10
4.8
20
1
11
0
21
1
62
1
0
ENDSEC
0
EOF