0
SECTION
2
ENTITIES
0
POLYLINE
8
0
66
1
70
8
62
5
0
VERTEX
8
0
10
3
20
1.2
0
VERTEX
8
0
10
3.8
20
1.2
0
VERTEX
8
0
10
3.8
20
2.8
0
VERTEX
8
0
10
3
20
2.8
0
VERTEX
8
0
10
3
20
1.2
0
SEQEND
0
LINE
8
0
62
8
10
3
20
1.15
11
3.8
21
1.15
0
TEXT
8
0
10
3.4
20
1.08
40
0.05
1
40
0
LINE
8
0
62
8
10
3.85
20
1.2
11
3.85
21
2.8
0
TEXT
8
0
10
3.87
20
2
40
0.05
1
80
0
LINE
8
0
62
3
10
3.1
20
1.28
11
3.7
21
1.28
0
LINE
8
0
62
3
10
3.72
20
1.3
11
3.72
21
2.7
0
LINE
8
0
62
3
10
3.7
20
2.72
11
3.1
21
2.72
0
LINE
8
0
62
3
10
3.08
20
2.7
11
3.08
21
1.3
0
ARC
8
0
62
3
10
3.1
20
1.3
40
0.02
50
180
51
270
0
ARC
8
0
62
3
10
3.7
20
1.3
40
0.02
50
270
51
0
0
ARC
8
0
62
3
10
3.7
20
2.7
40
0.02
50
0
51
90
0
ARC
8
0
62
3
10
3.1
20
2.7
40
0.02
50
90
51
180
0
LINE
8
0
62
3
10
3.12
20
1.3
11
3.68
21
1.3
0
LINE
8
0
62
3
10
3.7
20
1.32
11
3.7
21
2.68
0
LINE
8
0
62
3
10
3.68
20
2.7
11
3.12
21
2.7
0
LINE
8
0
62
3
10
3.1
20
2.68
11
3.1
21
1.32
0
ARC
8
0
62
3
10
3.12
20
1.32
40
0.02
50
180
51
270
0
ARC
8
0
62
3
10
3.68
20
1.32
40
0.02
50
270
51
0
0
ARC
8
0
62
3
10
3.68
20
2.68
40
0.02
50
0
51
90
0
ARC
8
0
62
3
10
3.12
20
2.68
40
0.02
50
90
51
180
0
LINE
8
0
10
3.495735314
20
2.455735314
11
3.66
21
2.72
62
3
0
LINE
8
0
10
3.66
20
2.72
11
3.495735314
21
2.455735314
62
3
0
LINE
8
0
10
3.585735314
20
2.425735314
11
3.72
21
2.68
62
3
0
LINE
8
0
10
3.72
20
2.68
11
3.585735314
21
2.425735314
62
3
0
LINE
8
0
10
3.515735314
20
2.455735314
11
3.66
21
2.7
62
3
0
LINE
8
0
10
3.66
20
2.7
11
3.515735314
21
2.455735314
62
3
0
LINE
8
0
10
3.575735314
20
2.435735314
11
3.7
21
2.66
62
3
0
LINE
8
0
10
3.7
20
2.66
11
3.575735314
21
2.435735314
62
3
0
CIRCLE
8
0
10
3.3
20
1.3127
40
0.0127
0
LINE
8
0
62
1
10
3.3
20
1.3127
11
3.4
21
2.85
0
CIRCLE
8
0
10
3.5
20
1.3127
40
0.0127
0
LINE
8
0
62
1
10
3.5
20
1.3127
11
3.4
21
2.85
0
TEXT
8
0
62
1
10
3.45
20
2.85
40
0.05
1
4 1/4"
0
CIRCLE
8
0
10
3.3
20
2.6873
40
0.0127
0
LINE
8
0
62
1
10
3.3
20
2.6873
11
3.4
21
2.85
0
CIRCLE
8
0
10
3.5
20
2.6873
40
0.0127
0
LINE
8
0
62
1
10
3.5
20
2.6873
11
3.4
21
2.85
0
CIRCLE
8
0
10
3.1127
20
1.7666666666667
40
0.0127
0
LINE
8
0
62
2
10
3.1127
20
1.7666666666667
11
2.5
21
2
0
CIRCLE
8
0
10
3.1127
20
2.2333333333333
40
0.0127
0
LINE
8
0
62
2
10
3.1127
20
2.2333333333333
11
2.5
21
2
0
CIRCLE
8
0
10
3.6873
20
1.7666666666667
40
0.0127
0
LINE
8
0
62
2
10
3.6873
20
1.7666666666667
11
2.5
21
2
0
CIRCLE
8
0
10
3.6873
20
2.2333333333333
40
0.0127
0
LINE
8
0
62
2
10
3.6873
20
2.2333333333333
11
2.5
21
2
0
TEXT
8
0
62
2
10
2.25
20
2
40
0.05
1
4 1/4"
0
CIRCLE
8
0
10
3.1127
20
1.3127
40
0.0127
0
LINE
8
0
62
6
10
3.1127
20
1.3127
11
4.1
21
2
0
CIRCLE
8
0
10
3.6873
20
1.3127
40
0.0127
0
LINE
8
0
62
6
10
3.6873
20
1.3127
11
4.1
21
2
0
CIRCLE
8
0
10
3.6873
20
2.6873
40
0.0127
0
LINE
8
0
62
6
10
3.6873
20
2.6873
11
4.1
21
2
0
CIRCLE
8
0
10
3.1127
20
2.6873
40
0.0127
0
LINE
8
0
62
6
10
3.1127
20
2.6873
11
4.1
21
2
0
TEXT
8
0
62
6
10
4.1
20
2
40
0.05
1
4 1/4"
0
TEXT
8
0
10
0.2
20
3.8
40
0.1
1
ESCALA:
0
TEXT
8
0
10
0.2
20
3.6
40
0.1
1
 1/50
0
TEXT
8
0
10
2
20
3.7
40
0.1
1
CUADRO DE COLUMNA
0
TEXT
8
0
10
0.2
20
3.3
40
0.1
1
NIVEL
0
TEXT
8
0
10
1.15
20
3.3
40
0.1
1
CONCRETO
0
TEXT
8
0
10
1
20
3.1
40
0.1
1
fc'(Kg/cm2)
0
TEXT
8
0
10
3.2
20
3.3
40
0.1
1
C1
0
TEXT
8
0
10
0.2
20
2.7
40
0.1
1
1° PISO
0
TEXT
8
0
10
0.2
20
2.5
40
0.1
1
2° PISO
0
TEXT
8
0
10
1.3
20
2.3
40
0.1
1
210
0
TEXT
8
0
10
0.5
20
0.5
40
0.1
1
ESFUERZO Y
0
TEXT
8
0
10
0.5
20
0.3
40
0.1
1
ESTRIBAJE
0
TEXT
8
0
10
2.7
20
0.8
40
0.1
1
40 cm X 80 cm
0
TEXT
8
0
10
2.2
20
0.6
40
0.1
1
4 1/4 + 4 1/4 + 4 1/4
0
TEXT
8
0
10
2.3
20
0.4
40
0.1
1
1 3/8∅: 1@0.05, 10@0.10,
0
TEXT
8
0
10
2.7
20
0.2
40
0.1
1
Rst. @0.20 C/E
0
POLYLINE
8
0
66
1
70
8
62
1
0
VERTEX
8
0
10
0
20
0
0
VERTEX
8
0
10
4.8
20
0
0
VERTEX
8
0
10
4.8
20
4.1
0
VERTEX
8
0
10
0
20
4.1
0
VERTEX
8
0
10
0
20
0
0
SEQEND
62
1
0
LINE
8
0
10
1
20
1
11
1
21
4.1
62
1
0
LINE
8
0
10
1
20
4.1
11
1
21
1
62
1
0
LINE
8
0
10
2
20
0
11
2
21
3.5
62
1
0
LINE
8
0
10
2
20
3.5
11
2
21
0
62
1
0
LINE
8
0
10
0
20
3.5
11
4.8
21
3.5
62
1
0
LINE
8
0
10
4.8
20
3.5
11
0
21
3.5
62
1
0
LINE
8
0
10
0
20
3
11
4.8
21
3
0
LINE
8
0
10
4.8
20
3
11
0
21
3
62
1
0
LINE
8
0
10
0
20
1
11
4.8
21
1
0
LINE
8
0
10
4.8
20
1
11
0
21
1
62
1
0
POLYLINE
8
0
66
1
70
8
62
1
0
VERTEX
8
0
10
0
20
0
0
VERTEX
8
0
10
4.8
20
0
0
VERTEX
8
0
10
4.8
20
-1.9
0
VERTEX
8
0
10
0
20
-1.9
0
VERTEX
8
0
10
0
20
0
0
SEQEND
0
LINE
8
0
62
1
10
2
20
0
11
2
21
-1.9
0
LINE
8
0
62
1
10
7.6
20
0
11
7.6
21
-1.9
0
POLYLINE
8
0
66
1
70
8
62
1
0
VERTEX
8
0
10
4.8
20
0
0
VERTEX
8
0
10
7.6
20
0
0
VERTEX
8
0
10
7.6
20
-1.9
0
VERTEX
8
0
10
4.8
20
-1.9
0
VERTEX
8
0
10
4.8
20
0
0
SEQEND
0
LINE
8
0
62
3
10
3.1
20
-1.56
11
3.7
21
-1.56
0
LINE
8
0
62
3
10
3.72
20
-1.54
11
3.72
21
-0.14
0
LINE
8
0
62
3
10
3.7
20
-0.12
11
3.1
21
-0.12
0
LINE
8
0
62
3
10
3.08
20
-0.14
11
3.08
21
-1.54
0
ARC
8
0
62
3
10
3.1
20
-1.54
40
0.02
50
180
51
270
0
ARC
8
0
62
3
10
3.7
20
-1.54
40
0.02
50
270
51
0
0
ARC
8
0
62
3
10
3.7
20
-0.14
40
0.02
50
0
51
90
0
ARC
8
0
62
3
10
3.1
20
-0.14
40
0.02
50
90
51
180
0
LINE
8
0
62
8
10
3.08
20
-1.59
11
3.72
21
-1.59
0
TEXT
8
0
62
8
10
3.4
20
-1.71
40
0.1
1
32
0
LINE
8
0
62
8
10
3.75
20
-1.56
11
3.75
21
-0.12
0
TEXT
8
0
62
8
10
3.76
20
-0.84
40
0.1
1
72
0
LINE
8
0
62
3
10
3.12
20
-1.54
11
3.68
21
-1.54
0
LINE
8
0
62
3
10
3.7
20
-1.52
11
3.7
21
-0.16
0
LINE
8
0
62
3
10
3.68
20
-0.14
11
3.12
21
-0.14
0
LINE
8
0
62
3
10
3.1
20
-0.16
11
3.1
21
-1.52
0
ARC
8
0
62
3
10
3.12
20
-1.52
40
0.02
50
180
51
270
0
ARC
8
0
62
3
10
3.68
20
-1.52
40
0.02
50
270
51
0
0
ARC
8
0
62
3
10
3.68
20
-0.16
40
0.02
50
0
51
90
0
ARC
8
0
62
3
10
3.12
20
-0.16
40
0.02
50
90
51
180
0
LINE
8
0
10
3.661
20
-0.12
11
3.4533333333333
21
-0.38666666666667
62
3
0
LINE
8
0
10
3.4533333333333
20
-0.38666666666667
11
3.661
21
-0.12
62
3
0
LINE
8
0
10
3.72
20
-0.179
11
3.5123333333333
21
-0.71233333333333
62
3
0
LINE
8
0
10
3.5123333333333
20
-0.71233333333333
11
3.72
21
-0.179
62
3
0
LINE
8
0
10
3.661
20
-0.14
11
3.4533333333333
21
-0.40666666666667
62
3
0
LINE
8
0
10
3.4533333333333
20
-0.40666666666667
11
3.661
21
-0.14
62
3
0
LINE
8
0
10
3.7
20
-0.179
11
3.4923333333333
21
-0.71233333333333
62
3
0
LINE
8
0
10
3.4923333333333
20
-0.71233333333333
11
3.7
21
-0.179
62
3
0
TEXT
8
0
10
0.5
20
-0.95
40
0.1
1
DESPIECE DE
0
TEXT
8
0
10
0.5
20
-1.15
40
0.1
1
ESTRIBOS
0
POLYLINE
8
0
66
1
70
8
62
5
0
VERTEX
8
0
10
5.8
20
1.2
0
VERTEX
8
0
10
6.6
20
1.2
0
VERTEX
8
0
10
6.6
20
2.8
0
VERTEX
8
0
10
5.8
20
2.8
0
VERTEX
8
0
10
5.8
20
1.2
0
SEQEND
0
LINE
8
0
62
8
10
5.8
20
1.15
11
6.6
21
1.15
0
TEXT
8
0
10
6.2
20
1.08
40
0.05
1
40
0
LINE
8
0
62
8
10
6.65
20
1.2
11
6.65
21
2.8
0
TEXT
8
0
10
6.67
20
2
40
0.05
1
80
0
LINE
8
0
62
3
10
5.9
20
1.28
11
6.5
21
1.28
0
LINE
8
0
62
3
10
6.52
20
1.3
11
6.52
21
2.7
0
LINE
8
0
62
3
10
6.5
20
2.72
11
5.9
21
2.72
0
LINE
8
0
62
3
10
5.88
20
2.7
11
5.88
21
1.3
0
ARC
8
0
62
3
10
5.9
20
1.3
40
0.02
50
180
51
270
0
ARC
8
0
62
3
10
6.5
20
1.3
40
0.02
50
270
51
0
0
ARC
8
0
62
3
10
6.5
20
2.7
40
0.02
50
0
51
90
0
ARC
8
0
62
3
10
5.9
20
2.7
40
0.02
50
90
51
180
0
LINE
8
0
62
3
10
5.92
20
1.3
11
6.48
21
1.3
0
LINE
8
0
62
3
10
6.5
20
1.32
11
6.5
21
2.68
0
LINE
8
0
62
3
10
6.48
20
2.7
11
5.92
21
2.7
0
LINE
8
0
62
3
10
5.9
20
2.68
11
5.9
21
1.32
0
ARC
8
0
62
3
10
5.92
20
1.32
40
0.02
50
180
51
270
0
ARC
8
0
62
3
10
6.48
20
1.32
40
0.02
50
270
51
0
0
ARC
8
0
62
3
10
6.48
20
2.68
40
0.02
50
0
51
90
0
ARC
8
0
62
3
10
5.92
20
2.68
40
0.02
50
90
51
180
0
CIRCLE
8
0
10
6.1
20
1.3127
40
0.0127
0
LINE
8
0
62
1
10
6.1
20
1.3127
11
6.2
21
2.85
0
CIRCLE
8
0
10
6.3
20
1.3127
40
0.0127
0
LINE
8
0
62
1
10
6.3
20
1.3127
11
6.2
21
2.85
0
TEXT
8
0
62
1
10
6.25
20
2.85
40
0.05
1
4 1/4"
0
CIRCLE
8
0
10
6.1
20
2.6873
40
0.0127
0
LINE
8
0
62
1
10
6.1
20
2.6873
11
6.2
21
2.85
0
CIRCLE
8
0
10
6.3
20
2.6873
40
0.0127
0
LINE
8
0
62
1
10
6.3
20
2.6873
11
6.2
21
2.85
0
CIRCLE
8
0
10
5.9127
20
1.7666666666667
40
0.0127
0
LINE
8
0
62
2
10
5.9127
20
1.7666666666667
11
5.3
21
2
0
CIRCLE
8
0
10
5.9127
20
2.2333333333333
40
0.0127
0
LINE
8
0
62
2
10
5.9127
20
2.2333333333333
11
5.3
21
2
0
CIRCLE
8
0
10
6.4873
20
1.7666666666667
40
0.0127
0
LINE
8
0
62
2
10
6.4873
20
1.7666666666667
11
5.3
21
2
0
CIRCLE
8
0
10
6.4873
20
2.2333333333333
40
0.0127
0
LINE
8
0
62
2
10
6.4873
20
2.2333333333333
11
5.3
21
2
0
TEXT
8
0
62
2
10
5.05
20
2
40
0.05
1
4 1/4"
0
CIRCLE
8
0
10
5.9127
20
1.3127
40
0.0127
0
LINE
8
0
62
6
10
5.9127
20
1.3127
11
6.9
21
2
0
CIRCLE
8
0
10
6.4873
20
1.3127
40
0.0127
0
LINE
8
0
62
6
10
6.4873
20
1.3127
11
6.9
21
2
0
CIRCLE
8
0
10
6.4873
20
2.6873
40
0.0127
0
LINE
8
0
62
6
10
6.4873
20
2.6873
11
6.9
21
2
0
CIRCLE
8
0
10
5.9127
20
2.6873
40
0.0127
0
LINE
8
0
62
6
10
5.9127
20
2.6873
11
6.9
21
2
0
TEXT
8
0
62
6
10
6.92
20
2
40
0.05
1
4 1/4"
0
LINE
8
0
10
6.461
20
2.72
11
6.1943333333333
21
2.1866666666667
62
3
0
LINE
8
0
10
6.1943333333333
20
2.1866666666667
11
6.461
21
2.72
62
3
0
LINE
8
0
10
6.52
20
2.661
11
6.2533333333333
21
2.1276666666667
62
3
0
LINE
8
0
10
6.2533333333333
20
2.1276666666667
11
6.52
21
2.661
62
3
0
LINE
8
0
10
6.461
20
2.7
11
6.2143333333333
21
2.1866666666667
62
3
0
LINE
8
0
10
6.2143333333333
20
2.1866666666667
11
6.461
21
2.7
62
3
0
LINE
8
0
10
6.5
20
2.661
11
6.2533333333333
21
2.1476666666667
62
3
0
LINE
8
0
10
6.2533333333333
20
2.1476666666667
11
6.5
21
2.661
62
3
0
LINE
8
0
62
3
10
5.9
20
-1.56
11
6.5
21
-1.56
0
LINE
8
0
62
3
10
6.52
20
-1.54
11
6.52
21
-0.14
0
LINE
8
0
62
3
10
6.5
20
-0.12
11
5.9
21
-0.12
0
LINE
8
0
62
3
10
5.88
20
-0.14
11
5.88
21
-1.54
0
ARC
8
0
62
3
10
5.9
20
-1.54
40
0.02
50
180
51
270
0
ARC
8
0
62
3
10
6.5
20
-1.54
40
0.02
50
270
51
0
0
ARC
8
0
62
3
10
6.5
20
-0.14
40
0.02
50
0
51
90
0
ARC
8
0
62
3
10
5.9
20
-0.14
40
0.02
50
90
51
180
0
LINE
8
0
62
8
10
5.88
20
-1.59
11
6.52
21
-1.59
0
TEXT
8
0
62
8
10
6.2
20
-1.71
40
0.1
1
32
0
LINE
8
0
62
8
10
6.55
20
-1.56
11
6.55
21
-0.12
0
TEXT
8
0
62
8
10
6.56
20
-0.84
40
0.1
1
72
0
LINE
8
0
62
3
10
5.92
20
-1.54
11
6.48
21
-1.54
0
LINE
8
0
62
3
10
6.5
20
-1.52
11
6.5
21
-0.16
0
LINE
8
0
62
3
10
6.48
20
-0.14
11
5.92
21
-0.14
0
LINE
8
0
62
3
10
5.9
20
-0.16
11
5.9
21
-1.52
0
ARC
8
0
62
3
10
5.92
20
-1.52
40
0.02
50
180
51
270
0
ARC
8
0
62
3
10
6.48
20
-1.52
40
0.02
50
270
51
0
0
ARC
8
0
62
3
10
6.48
20
-0.16
40
0.02
50
0
51
90
0
ARC
8
0
62
3
10
5.92
20
-0.16
40
0.02
50
90
51
180
0
LINE
8
0
10
6.461
20
-0.12
11
6.1943333333333
21
-0.38666666666667
62
3
0
LINE
8
0
10
6.1943333333333
20
-0.38666666666667
11
6.461
21
-0.12
62
3
0
LINE
8
0
10
6.52
20
-0.179
11
6.2533333333333
21
-0.71233333333333
62
3
0
LINE
8
0
10
6.2533333333333
20
-0.71233333333333
11
6.52
21
-0.179
62
3
0
LINE
8
0
10
6.461
20
-0.14
11
6.2143333333333
21
-0.38666666666667
62
3
0
LINE
8
0
10
6.2143333333333
20
-0.38666666666667
11
6.461
21
-0.14
62
3
0
LINE
8
0
10
6.5
20
-0.179
11
6.2533333333333
21
-0.69233333333333
62
3
0
LINE
8
0
10
6.2533333333333
20
-0.69233333333333
11
6.5
21
-0.179
62
3
0
TEXT
8
0
10
5.5
20
0.8
40
0.1
1
40 cm X 80 cm
0
TEXT
8
0
10
5
20
0.6
40
0.1
1
4 1/4 + 4 1/4 + 4 1/4
0
TEXT
8
0
10
5.1
20
0.4
40
0.1
1
1 3/8∅: 1@0.05, 10@0.10,
0
TEXT
8
0
10
5.5
20
0.2
40
0.1
1
Rst. @0.20 C/E
0
TEXT
8
0
10
5.2
20
3.7
40
0.1
1
CUADRO DE COLUMNA 2
0
TEXT
8
0
10
6.2
20
3.3
40
0.1
1
C2
0
LINE
8
0
10
4.8
20
3.5
11
7.6
21
3.5
62
1
0
LINE
8
0
10
4.8
20
1
11
7.6
21
1
62
1
0
LINE
8
0
10
4.8
20
3
11
7.6
21
3
62
1
0
LINE
8
0
10
7.6
20
0
11
7.6
21
4.1
62
1
0
POLYLINE
8
0
66
1
70
8
62
1
0
VERTEX
8
0
10
4.8
20
0
0
VERTEX
8
0
10
7.6
20
0
0
VERTEX
8
0
10
7.6
20
4.1
0
VERTEX
8
0
10
4.8
20
4.1
0
VERTEX
8
0
10
4.8
20
0
0
SEQEND
0
ENDSEC
0
EOF